<svg xmlns="http://www.w3.org/2000/svg" xmlns:xlink="http://www.w3.org/1999/xlink" xmlns:inkscape="http://www.inkscape.org/namespaces/inkscape" version="1.1" width="42.5197" height="73.7008" viewBox="0 0 42.5197 73.7008">
<defs>
<clipPath id="clip_1">
<path transform="matrix(1,0,0,-1,0,73.7008)" d="M0 0H42.5197V73.7008H0Z"/>
</clipPath>
</defs>
<g clip-path="url(#clip_1)">
<path transform="matrix(1,0,0,-1,81.1218,115.0172)" d="M0 0C-.316 .271-.59 .586-.84 .92L-16.336-8.008V-25.877C-15.825-25.963-15.339-26.113-14.883-26.325ZM-1.706 2.582C-1.791 2.846-1.869 3.113-1.916 3.392H-32.769C-32.814 3.119-32.892 2.858-32.974 2.599L-17.274-6.387ZM-18.209-8.011-33.835 .933C-34.07 .617-34.328 .321-34.622 .061L-19.288-26.168C-18.943-26.037-18.583-25.94-18.209-25.877ZM-34.684 8.932C-34.368 8.661-34.094 8.346-33.844 8.012L-18.348 16.94V34.809C-18.86 34.895-19.345 35.045-19.801 35.257ZM-32.979 6.35C-32.894 6.086-32.815 5.819-32.769 5.54H-1.916C-1.87 5.813-1.793 6.075-1.71 6.333L-17.411 15.319ZM-16.475 16.943-.849 8C-.614 8.315-.356 8.611-.062 8.871L-15.396 35.1C-15.742 34.969-16.101 34.872-16.475 34.809ZM9.36 4.466C9.362 4.42 9.367 4.375 9.367 4.329 9.367 1.187 6.82-1.36 3.679-1.36 2.945-1.36 2.249-1.215 1.607-.962L-13.33-27.383C-12.257-28.418-11.584-29.863-11.584-31.472-11.584-34.614-14.131-37.161-17.273-37.161-20.415-37.161-22.962-34.614-22.962-31.472-22.962-29.716-22.15-28.167-20.9-27.123L-36.215-.926C-36.879-1.199-37.6-1.36-38.363-1.36-41.505-1.36-44.052 1.187-44.052 4.329-44.052 4.375-44.046 4.42-44.045 4.466-44.046 4.512-44.052 4.557-44.052 4.604-44.052 7.745-41.505 10.292-38.363 10.292-37.63 10.292-36.933 10.148-36.291 9.894L-21.354 36.315C-22.427 37.35-23.1 38.796-23.1 40.404-23.1 43.546-20.553 46.093-17.412 46.093-14.27 46.093-11.723 43.546-11.723 40.404-11.723 38.648-12.535 37.099-13.784 36.055L1.531 9.858C2.194 10.131 2.915 10.292 3.679 10.292 6.82 10.292 9.367 7.745 9.367 4.604 9.367 4.557 9.362 4.512 9.36 4.466" fill="#231f20"/>
<path transform="matrix(1,0,0,-1,38.6021,115.0172)" d="M0 0C-.316 .271-.59 .586-.84 .92L-16.336-8.008V-25.877C-15.825-25.963-15.339-26.113-14.883-26.325ZM-1.706 2.582C-1.791 2.846-1.869 3.113-1.916 3.392H-32.769C-32.814 3.119-32.892 2.858-32.974 2.599L-17.274-6.387ZM-18.209-8.011-33.835 .933C-34.07 .617-34.328 .321-34.622 .061L-19.288-26.168C-18.943-26.037-18.583-25.94-18.209-25.877ZM-34.684 8.932C-34.368 8.661-34.094 8.346-33.844 8.012L-18.348 16.94V34.809C-18.86 34.895-19.345 35.045-19.801 35.257ZM-32.979 6.35C-32.893 6.086-32.815 5.819-32.769 5.54H-1.916C-1.87 5.813-1.793 6.075-1.71 6.333L-17.411 15.319ZM-16.475 16.943-.849 8C-.614 8.315-.356 8.611-.062 8.871L-15.396 35.1C-15.742 34.969-16.101 34.872-16.475 34.809ZM9.36 4.466C9.362 4.42 9.367 4.375 9.367 4.329 9.367 1.187 6.82-1.36 3.679-1.36 2.945-1.36 2.249-1.215 1.607-.962L-13.33-27.383C-12.257-28.418-11.584-29.863-11.584-31.472-11.584-34.614-14.131-37.161-17.273-37.161-20.415-37.161-22.962-34.614-22.962-31.472-22.962-29.716-22.15-28.167-20.9-27.123L-36.215-.926C-36.879-1.199-37.6-1.36-38.363-1.36-41.505-1.36-44.052 1.187-44.052 4.329-44.052 4.375-44.046 4.42-44.045 4.466-44.046 4.512-44.052 4.557-44.052 4.604-44.052 7.745-41.505 10.292-38.363 10.292-37.63 10.292-36.933 10.148-36.291 9.894L-21.354 36.315C-22.427 37.35-23.1 38.796-23.1 40.404-23.1 43.546-20.553 46.093-17.412 46.093-14.27 46.093-11.723 43.546-11.723 40.404-11.723 38.648-12.535 37.099-13.784 36.055L1.531 9.858C2.194 10.131 2.915 10.292 3.679 10.292 6.82 10.292 9.367 7.745 9.367 4.604 9.367 4.557 9.362 4.512 9.36 4.466" fill="#231f20"/>
<path transform="matrix(1,0,0,-1,-3.9176,115.0172)" d="M0 0C-.316 .271-.59 .586-.84 .92L-16.336-8.008V-25.877C-15.825-25.963-15.339-26.113-14.883-26.325ZM-1.706 2.582C-1.791 2.846-1.869 3.113-1.916 3.392H-32.769C-32.814 3.119-32.892 2.858-32.974 2.599L-17.274-6.387ZM-18.209-8.011-33.835 .933C-34.07 .617-34.328 .321-34.622 .061L-19.288-26.168C-18.943-26.037-18.583-25.94-18.209-25.877ZM-34.684 8.932C-34.368 8.661-34.094 8.346-33.844 8.012L-18.348 16.94V34.809C-18.86 34.895-19.345 35.045-19.801 35.257ZM-32.979 6.35C-32.893 6.086-32.815 5.819-32.769 5.54H-1.916C-1.87 5.813-1.793 6.075-1.71 6.333L-17.411 15.319ZM-16.475 16.943-.849 8C-.614 8.315-.356 8.611-.062 8.871L-15.396 35.1C-15.742 34.969-16.101 34.872-16.475 34.809ZM9.36 4.466C9.362 4.42 9.367 4.375 9.367 4.329 9.367 1.187 6.82-1.36 3.679-1.36 2.945-1.36 2.249-1.215 1.607-.962L-13.33-27.383C-12.257-28.418-11.584-29.863-11.584-31.472-11.584-34.614-14.131-37.161-17.273-37.161-20.415-37.161-22.962-34.614-22.962-31.472-22.962-29.716-22.15-28.167-20.9-27.123L-36.215-.926C-36.879-1.199-37.6-1.36-38.363-1.36-41.505-1.36-44.052 1.187-44.052 4.329-44.052 4.375-44.046 4.42-44.045 4.466-44.046 4.512-44.052 4.557-44.052 4.604-44.052 7.745-41.505 10.292-38.363 10.292-37.63 10.292-36.933 10.148-36.291 9.894L-21.354 36.315C-22.427 37.35-23.1 38.796-23.1 40.404-23.1 43.546-20.553 46.093-17.412 46.093-14.27 46.093-11.723 43.546-11.723 40.404-11.723 38.648-12.535 37.099-13.784 36.055L1.531 9.858C2.194 10.131 2.915 10.292 3.679 10.292 6.82 10.292 9.367 7.745 9.367 4.604 9.367 4.557 9.362 4.512 9.36 4.466" fill="#231f20"/>
<path transform="matrix(1,0,0,-1,59.8619,78.1668)" d="M0 0C-.316 .271-.59 .586-.84 .92L-16.336-8.008V-25.877C-15.825-25.963-15.339-26.113-14.883-26.325ZM-1.706 2.582C-1.791 2.846-1.869 3.113-1.916 3.392H-32.769C-32.814 3.119-32.892 2.858-32.974 2.599L-17.274-6.387ZM-18.209-8.011-33.835 .933C-34.07 .617-34.328 .321-34.622 .061L-19.288-26.168C-18.943-26.037-18.583-25.94-18.209-25.877ZM-34.684 8.932C-34.368 8.661-34.094 8.346-33.844 8.012L-18.348 16.94V34.81C-18.86 34.895-19.345 35.045-19.801 35.257ZM-32.979 6.35C-32.893 6.086-32.815 5.819-32.769 5.54H-1.916C-1.87 5.813-1.793 6.075-1.71 6.333L-17.411 15.319ZM-16.475 16.943-.849 8C-.614 8.315-.356 8.611-.062 8.871L-15.396 35.1C-15.742 34.969-16.101 34.872-16.475 34.81ZM9.36 4.466C9.362 4.42 9.367 4.375 9.367 4.329 9.367 1.187 6.82-1.36 3.679-1.36 2.945-1.36 2.249-1.215 1.607-.962L-13.33-27.383C-12.257-28.418-11.584-29.863-11.584-31.472-11.584-34.614-14.131-37.161-17.273-37.161-20.415-37.161-22.962-34.614-22.962-31.472-22.962-29.716-22.15-28.167-20.9-27.123L-36.215-.926C-36.879-1.199-37.6-1.36-38.363-1.36-41.505-1.36-44.052 1.187-44.052 4.329-44.052 4.375-44.046 4.42-44.045 4.466-44.046 4.512-44.052 4.557-44.052 4.604-44.052 7.745-41.505 10.292-38.363 10.292-37.63 10.292-36.933 10.148-36.291 9.894L-21.354 36.315C-22.427 37.35-23.1 38.796-23.1 40.404-23.1 43.546-20.553 46.093-17.412 46.093-14.27 46.093-11.723 43.546-11.723 40.404-11.723 38.648-12.535 37.099-13.784 36.055L1.531 9.858C2.194 10.131 2.915 10.292 3.679 10.292 6.82 10.292 9.367 7.745 9.367 4.604 9.367 4.557 9.362 4.512 9.36 4.466" fill="#231f20"/>
<path transform="matrix(1,0,0,-1,17.3423,78.1668)" d="M0 0C-.316 .271-.59 .586-.84 .92L-16.336-8.008V-25.877C-15.825-25.963-15.339-26.113-14.883-26.325ZM-1.706 2.582C-1.791 2.846-1.869 3.113-1.916 3.392H-32.769C-32.814 3.119-32.892 2.858-32.974 2.599L-17.274-6.387ZM-18.209-8.011-33.835 .933C-34.07 .617-34.328 .321-34.622 .061L-19.288-26.168C-18.943-26.037-18.583-25.94-18.209-25.877ZM-34.684 8.932C-34.368 8.661-34.094 8.346-33.844 8.012L-18.348 16.94V34.81C-18.86 34.895-19.345 35.045-19.801 35.257ZM-32.979 6.35C-32.893 6.086-32.815 5.819-32.769 5.54H-1.916C-1.87 5.813-1.793 6.075-1.71 6.333L-17.411 15.319ZM-16.475 16.943-.849 8C-.614 8.315-.356 8.611-.062 8.871L-15.396 35.1C-15.742 34.969-16.101 34.872-16.475 34.81ZM9.36 4.466C9.362 4.42 9.367 4.375 9.367 4.329 9.367 1.187 6.82-1.36 3.679-1.36 2.945-1.36 2.249-1.215 1.607-.962L-13.33-27.383C-12.257-28.418-11.584-29.863-11.584-31.472-11.584-34.614-14.131-37.161-17.273-37.161-20.415-37.161-22.962-34.614-22.962-31.472-22.962-29.716-22.15-28.167-20.9-27.123L-36.215-.926C-36.879-1.199-37.6-1.36-38.363-1.36-41.505-1.36-44.052 1.187-44.052 4.329-44.052 4.375-44.046 4.42-44.045 4.466-44.046 4.512-44.052 4.557-44.052 4.604-44.052 7.745-41.505 10.292-38.363 10.292-37.63 10.292-36.933 10.148-36.291 9.894L-21.354 36.315C-22.427 37.35-23.1 38.796-23.1 40.404-23.1 43.546-20.553 46.093-17.412 46.093-14.27 46.093-11.723 43.546-11.723 40.404-11.723 38.648-12.535 37.099-13.784 36.055L1.531 9.858C2.194 10.131 2.915 10.292 3.679 10.292 6.82 10.292 9.367 7.745 9.367 4.604 9.367 4.557 9.362 4.512 9.36 4.466" fill="#231f20"/>
<path transform="matrix(1,0,0,-1,81.1218,41.3164)" d="M0 0C-.316 .271-.59 .586-.84 .92L-16.336-8.008V-25.877C-15.825-25.963-15.339-26.113-14.883-26.325ZM-1.706 2.582C-1.791 2.846-1.869 3.113-1.916 3.392H-32.769C-32.814 3.119-32.892 2.858-32.974 2.599L-17.274-6.387ZM-18.209-8.011-33.835 .933C-34.07 .617-34.328 .321-34.622 .061L-19.288-26.168C-18.943-26.037-18.583-25.94-18.209-25.877ZM-34.684 8.932C-34.368 8.661-34.094 8.346-33.844 8.012L-18.348 16.94V34.81C-18.86 34.895-19.345 35.045-19.801 35.257ZM-32.979 6.35C-32.894 6.086-32.815 5.819-32.769 5.54H-1.916C-1.87 5.813-1.793 6.075-1.71 6.333L-17.411 15.319ZM-16.475 16.943-.849 8C-.614 8.315-.356 8.611-.062 8.871L-15.396 35.1C-15.742 34.969-16.101 34.872-16.475 34.81ZM9.36 4.466C9.362 4.42 9.367 4.375 9.367 4.329 9.367 1.187 6.82-1.36 3.679-1.36 2.945-1.36 2.249-1.215 1.607-.962L-13.33-27.383C-12.257-28.418-11.584-29.863-11.584-31.472-11.584-34.614-14.131-37.161-17.273-37.161-20.415-37.161-22.962-34.614-22.962-31.472-22.962-29.716-22.15-28.167-20.9-27.123L-36.215-.926C-36.879-1.199-37.6-1.36-38.363-1.36-41.505-1.36-44.052 1.187-44.052 4.329-44.052 4.375-44.046 4.42-44.045 4.466-44.046 4.512-44.052 4.557-44.052 4.604-44.052 7.745-41.505 10.292-38.363 10.292-37.63 10.292-36.933 10.148-36.291 9.894L-21.354 36.315C-22.427 37.35-23.1 38.796-23.1 40.404-23.1 43.546-20.553 46.093-17.412 46.093-14.27 46.093-11.723 43.546-11.723 40.404-11.723 38.648-12.535 37.099-13.784 36.055L1.531 9.858C2.194 10.131 2.915 10.292 3.679 10.292 6.82 10.292 9.367 7.745 9.367 4.604 9.367 4.557 9.362 4.512 9.36 4.466" fill="#231f20"/>
<path transform="matrix(1,0,0,-1,38.6021,41.3164)" d="M0 0C-.316 .271-.59 .586-.84 .92L-16.336-8.008V-25.877C-15.825-25.963-15.339-26.113-14.883-26.325ZM-1.706 2.582C-1.791 2.846-1.869 3.113-1.916 3.392H-32.769C-32.814 3.119-32.892 2.858-32.974 2.599L-17.274-6.387ZM-18.209-8.011-33.835 .933C-34.07 .617-34.328 .321-34.622 .061L-19.288-26.168C-18.943-26.037-18.583-25.94-18.209-25.877ZM-34.684 8.932C-34.368 8.661-34.094 8.346-33.844 8.012L-18.348 16.94V34.81C-18.86 34.895-19.345 35.045-19.801 35.257ZM-32.979 6.35C-32.893 6.086-32.815 5.819-32.769 5.54H-1.916C-1.87 5.813-1.793 6.075-1.71 6.333L-17.411 15.319ZM-16.475 16.943-.849 8C-.614 8.315-.356 8.611-.062 8.871L-15.396 35.1C-15.742 34.969-16.101 34.872-16.475 34.81ZM9.36 4.466C9.362 4.42 9.367 4.375 9.367 4.329 9.367 1.187 6.82-1.36 3.679-1.36 2.945-1.36 2.249-1.215 1.607-.962L-13.33-27.383C-12.257-28.418-11.584-29.863-11.584-31.472-11.584-34.614-14.131-37.161-17.273-37.161-20.415-37.161-22.962-34.614-22.962-31.472-22.962-29.716-22.15-28.167-20.9-27.123L-36.215-.926C-36.879-1.199-37.6-1.36-38.363-1.36-41.505-1.36-44.052 1.187-44.052 4.329-44.052 4.375-44.046 4.42-44.045 4.466-44.046 4.512-44.052 4.557-44.052 4.604-44.052 7.745-41.505 10.292-38.363 10.292-37.63 10.292-36.933 10.148-36.291 9.894L-21.354 36.315C-22.427 37.35-23.1 38.796-23.1 40.404-23.1 43.546-20.553 46.093-17.412 46.093-14.27 46.093-11.723 43.546-11.723 40.404-11.723 38.648-12.535 37.099-13.784 36.055L1.531 9.858C2.194 10.131 2.915 10.292 3.679 10.292 6.82 10.292 9.367 7.745 9.367 4.604 9.367 4.557 9.362 4.512 9.36 4.466" fill="#231f20"/>
<path transform="matrix(1,0,0,-1,-3.9176,41.3164)" d="M0 0C-.316 .271-.59 .586-.84 .92L-16.336-8.008V-25.877C-15.825-25.963-15.339-26.113-14.883-26.325ZM-1.706 2.582C-1.791 2.846-1.869 3.113-1.916 3.392H-32.769C-32.814 3.119-32.892 2.858-32.974 2.599L-17.274-6.387ZM-18.209-8.011-33.835 .933C-34.07 .617-34.328 .321-34.622 .061L-19.288-26.168C-18.943-26.037-18.583-25.94-18.209-25.877ZM-34.684 8.932C-34.368 8.661-34.094 8.346-33.844 8.012L-18.348 16.94V34.81C-18.86 34.895-19.345 35.045-19.801 35.257ZM-32.979 6.35C-32.893 6.086-32.815 5.819-32.769 5.54H-1.916C-1.87 5.813-1.793 6.075-1.71 6.333L-17.411 15.319ZM-16.475 16.943-.849 8C-.614 8.315-.356 8.611-.062 8.871L-15.396 35.1C-15.742 34.969-16.101 34.872-16.475 34.81ZM9.36 4.466C9.362 4.42 9.367 4.375 9.367 4.329 9.367 1.187 6.82-1.36 3.679-1.36 2.945-1.36 2.249-1.215 1.607-.962L-13.33-27.383C-12.257-28.418-11.584-29.863-11.584-31.472-11.584-34.614-14.131-37.161-17.273-37.161-20.415-37.161-22.962-34.614-22.962-31.472-22.962-29.716-22.15-28.167-20.9-27.123L-36.215-.926C-36.879-1.199-37.6-1.36-38.363-1.36-41.505-1.36-44.052 1.187-44.052 4.329-44.052 4.375-44.046 4.42-44.045 4.466-44.046 4.512-44.052 4.557-44.052 4.604-44.052 7.745-41.505 10.292-38.363 10.292-37.63 10.292-36.933 10.148-36.291 9.894L-21.354 36.315C-22.427 37.35-23.1 38.796-23.1 40.404-23.1 43.546-20.553 46.093-17.412 46.093-14.27 46.093-11.723 43.546-11.723 40.404-11.723 38.648-12.535 37.099-13.784 36.055L1.531 9.858C2.194 10.131 2.915 10.292 3.679 10.292 6.82 10.292 9.367 7.745 9.367 4.604 9.367 4.557 9.362 4.512 9.36 4.466" fill="#231f20"/>
<path transform="matrix(1,0,0,-1,59.8619,4.465996)" d="M0 0C-.316 .271-.59 .586-.84 .92L-16.336-8.008V-25.877C-15.825-25.963-15.339-26.113-14.883-26.325ZM-1.706 2.582C-1.791 2.846-1.869 3.113-1.916 3.392H-32.769C-32.814 3.119-32.892 2.858-32.974 2.599L-17.274-6.387ZM-18.209-8.011-33.835 .933C-34.07 .617-34.328 .321-34.622 .061L-19.288-26.168C-18.943-26.037-18.583-25.94-18.209-25.877ZM-34.684 8.932C-34.368 8.661-34.094 8.346-33.844 8.012L-18.348 16.94V34.81C-18.86 34.895-19.345 35.045-19.801 35.257ZM-32.979 6.35C-32.893 6.086-32.815 5.819-32.769 5.54H-1.916C-1.87 5.813-1.793 6.075-1.71 6.333L-17.411 15.319ZM-16.475 16.943-.849 8C-.614 8.315-.356 8.611-.062 8.871L-15.396 35.1C-15.742 34.969-16.101 34.872-16.475 34.81ZM9.36 4.466C9.362 4.42 9.367 4.375 9.367 4.329 9.367 1.187 6.82-1.36 3.679-1.36 2.945-1.36 2.249-1.215 1.607-.962L-13.33-27.383C-12.257-28.418-11.584-29.863-11.584-31.472-11.584-34.614-14.131-37.161-17.273-37.161-20.415-37.161-22.962-34.614-22.962-31.472-22.962-29.716-22.15-28.167-20.9-27.123L-36.215-.926C-36.879-1.199-37.6-1.36-38.363-1.36-41.505-1.36-44.052 1.187-44.052 4.329-44.052 4.375-44.046 4.42-44.045 4.466-44.046 4.512-44.052 4.557-44.052 4.604-44.052 7.745-41.505 10.292-38.363 10.292-37.63 10.292-36.933 10.148-36.291 9.894L-21.354 36.315C-22.427 37.35-23.1 38.796-23.1 40.404-23.1 43.546-20.553 46.093-17.412 46.093-14.27 46.093-11.723 43.546-11.723 40.404-11.723 38.648-12.535 37.099-13.784 36.055L1.531 9.858C2.194 10.131 2.915 10.292 3.679 10.292 6.82 10.292 9.367 7.745 9.367 4.604 9.367 4.557 9.362 4.512 9.36 4.466" fill="#231f20"/>
<path transform="matrix(1,0,0,-1,17.3423,4.465996)" d="M0 0C-.316 .271-.59 .586-.84 .92L-16.336-8.008V-25.877C-15.825-25.963-15.339-26.113-14.883-26.325ZM-1.706 2.582C-1.791 2.846-1.869 3.113-1.916 3.392H-32.769C-32.814 3.119-32.892 2.858-32.974 2.599L-17.274-6.387ZM-18.209-8.011-33.835 .933C-34.07 .617-34.328 .321-34.622 .061L-19.288-26.168C-18.943-26.037-18.583-25.94-18.209-25.877ZM-34.684 8.932C-34.368 8.661-34.094 8.346-33.844 8.012L-18.348 16.94V34.81C-18.86 34.895-19.345 35.045-19.801 35.257ZM-32.979 6.35C-32.893 6.086-32.815 5.819-32.769 5.54H-1.916C-1.87 5.813-1.793 6.075-1.71 6.333L-17.411 15.319ZM-16.475 16.943-.849 8C-.614 8.315-.356 8.611-.062 8.871L-15.396 35.1C-15.742 34.969-16.101 34.872-16.475 34.81ZM9.36 4.466C9.362 4.42 9.367 4.375 9.367 4.329 9.367 1.187 6.82-1.36 3.679-1.36 2.945-1.36 2.249-1.215 1.607-.962L-13.33-27.383C-12.257-28.418-11.584-29.863-11.584-31.472-11.584-34.614-14.131-37.161-17.273-37.161-20.415-37.161-22.962-34.614-22.962-31.472-22.962-29.716-22.15-28.167-20.9-27.123L-36.215-.926C-36.879-1.199-37.6-1.36-38.363-1.36-41.505-1.36-44.052 1.187-44.052 4.329-44.052 4.375-44.046 4.42-44.045 4.466-44.046 4.512-44.052 4.557-44.052 4.604-44.052 7.745-41.505 10.292-38.363 10.292-37.63 10.292-36.933 10.148-36.291 9.894L-21.354 36.315C-22.427 37.35-23.1 38.796-23.1 40.404-23.1 43.546-20.553 46.093-17.412 46.093-14.27 46.093-11.723 43.546-11.723 40.404-11.723 38.648-12.535 37.099-13.784 36.055L1.531 9.858C2.194 10.131 2.915 10.292 3.679 10.292 6.82 10.292 9.367 7.745 9.367 4.604 9.367 4.557 9.362 4.512 9.36 4.466" fill="#231f20"/>
<path transform="matrix(1,0,0,-1,81.1218,-32.3844)" d="M0 0C-.316 .271-.59 .586-.84 .92L-16.336-8.008V-25.877C-15.825-25.963-15.339-26.113-14.883-26.325ZM-1.706 2.582C-1.791 2.846-1.869 3.113-1.916 3.392H-32.769C-32.814 3.119-32.892 2.858-32.974 2.599L-17.274-6.387ZM-18.209-8.011-33.835 .933C-34.07 .617-34.328 .321-34.622 .061L-19.288-26.168C-18.943-26.037-18.583-25.94-18.209-25.877ZM-34.684 8.932C-34.368 8.661-34.094 8.346-33.844 8.012L-18.348 16.94V34.81C-18.86 34.895-19.345 35.045-19.801 35.257ZM-32.979 6.35C-32.894 6.086-32.815 5.819-32.769 5.54H-1.916C-1.87 5.813-1.793 6.075-1.71 6.333L-17.411 15.319ZM-16.475 16.943-.849 8C-.614 8.315-.356 8.611-.062 8.871L-15.396 35.1C-15.742 34.969-16.101 34.872-16.475 34.81ZM9.36 4.466C9.362 4.42 9.367 4.375 9.367 4.329 9.367 1.187 6.82-1.36 3.679-1.36 2.945-1.36 2.249-1.215 1.607-.962L-13.33-27.383C-12.257-28.418-11.584-29.863-11.584-31.472-11.584-34.614-14.131-37.161-17.273-37.161-20.415-37.161-22.962-34.614-22.962-31.472-22.962-29.716-22.15-28.167-20.9-27.123L-36.215-.926C-36.879-1.199-37.6-1.36-38.363-1.36-41.505-1.36-44.052 1.187-44.052 4.329-44.052 4.375-44.046 4.42-44.045 4.466-44.046 4.512-44.052 4.557-44.052 4.604-44.052 7.745-41.505 10.292-38.363 10.292-37.63 10.292-36.933 10.148-36.291 9.894L-21.354 36.315C-22.427 37.35-23.1 38.796-23.1 40.404-23.1 43.546-20.553 46.093-17.412 46.093-14.27 46.093-11.723 43.546-11.723 40.404-11.723 38.648-12.535 37.099-13.784 36.055L1.531 9.858C2.194 10.131 2.915 10.292 3.679 10.292 6.82 10.292 9.367 7.745 9.367 4.604 9.367 4.557 9.362 4.512 9.36 4.466" fill="#231f20"/>
<path transform="matrix(1,0,0,-1,38.6021,-32.3844)" d="M0 0C-.316 .271-.59 .586-.84 .92L-16.336-8.008V-25.877C-15.825-25.963-15.339-26.113-14.883-26.325ZM-1.706 2.582C-1.791 2.846-1.869 3.113-1.916 3.392H-32.769C-32.814 3.119-32.892 2.858-32.974 2.599L-17.274-6.387ZM-18.209-8.011-33.835 .933C-34.07 .617-34.328 .321-34.622 .061L-19.288-26.168C-18.943-26.037-18.583-25.94-18.209-25.877ZM-34.684 8.932C-34.368 8.661-34.094 8.346-33.844 8.012L-18.348 16.94V34.81C-18.86 34.895-19.345 35.045-19.801 35.257ZM-32.979 6.35C-32.893 6.086-32.815 5.819-32.769 5.54H-1.916C-1.87 5.813-1.793 6.075-1.71 6.333L-17.411 15.319ZM-16.475 16.943-.849 8C-.614 8.315-.356 8.611-.062 8.871L-15.396 35.1C-15.742 34.969-16.101 34.872-16.475 34.81ZM9.36 4.466C9.362 4.42 9.367 4.375 9.367 4.329 9.367 1.187 6.82-1.36 3.679-1.36 2.945-1.36 2.249-1.215 1.607-.962L-13.33-27.383C-12.257-28.418-11.584-29.863-11.584-31.472-11.584-34.614-14.131-37.161-17.273-37.161-20.415-37.161-22.962-34.614-22.962-31.472-22.962-29.716-22.15-28.167-20.9-27.123L-36.215-.926C-36.879-1.199-37.6-1.36-38.363-1.36-41.505-1.36-44.052 1.187-44.052 4.329-44.052 4.375-44.046 4.42-44.045 4.466-44.046 4.512-44.052 4.557-44.052 4.604-44.052 7.745-41.505 10.292-38.363 10.292-37.63 10.292-36.933 10.148-36.291 9.894L-21.354 36.315C-22.427 37.35-23.1 38.796-23.1 40.404-23.1 43.546-20.553 46.093-17.412 46.093-14.27 46.093-11.723 43.546-11.723 40.404-11.723 38.648-12.535 37.099-13.784 36.055L1.531 9.858C2.194 10.131 2.915 10.292 3.679 10.292 6.82 10.292 9.367 7.745 9.367 4.604 9.367 4.557 9.362 4.512 9.36 4.466" fill="#231f20"/>
<path transform="matrix(1,0,0,-1,-3.9176,-32.3844)" d="M0 0C-.316 .271-.59 .586-.84 .92L-16.336-8.008V-25.877C-15.825-25.963-15.339-26.113-14.883-26.325ZM-1.706 2.582C-1.791 2.846-1.869 3.113-1.916 3.392H-32.769C-32.814 3.119-32.892 2.858-32.974 2.599L-17.274-6.387ZM-18.209-8.011-33.835 .933C-34.07 .617-34.328 .321-34.622 .061L-19.288-26.168C-18.943-26.037-18.583-25.94-18.209-25.877ZM-34.684 8.932C-34.368 8.661-34.094 8.346-33.844 8.012L-18.348 16.94V34.81C-18.86 34.895-19.345 35.045-19.801 35.257ZM-32.979 6.35C-32.893 6.086-32.815 5.819-32.769 5.54H-1.916C-1.87 5.813-1.793 6.075-1.71 6.333L-17.411 15.319ZM-16.475 16.943-.849 8C-.614 8.315-.356 8.611-.062 8.871L-15.396 35.1C-15.742 34.969-16.101 34.872-16.475 34.81ZM9.36 4.466C9.362 4.42 9.367 4.375 9.367 4.329 9.367 1.187 6.82-1.36 3.679-1.36 2.945-1.36 2.249-1.215 1.607-.962L-13.33-27.383C-12.257-28.418-11.584-29.863-11.584-31.472-11.584-34.614-14.131-37.161-17.273-37.161-20.415-37.161-22.962-34.614-22.962-31.472-22.962-29.716-22.15-28.167-20.9-27.123L-36.215-.926C-36.879-1.199-37.6-1.36-38.363-1.36-41.505-1.36-44.052 1.187-44.052 4.329-44.052 4.375-44.046 4.42-44.045 4.466-44.046 4.512-44.052 4.557-44.052 4.604-44.052 7.745-41.505 10.292-38.363 10.292-37.63 10.292-36.933 10.148-36.291 9.894L-21.354 36.315C-22.427 37.35-23.1 38.796-23.1 40.404-23.1 43.546-20.553 46.093-17.412 46.093-14.27 46.093-11.723 43.546-11.723 40.404-11.723 38.648-12.535 37.099-13.784 36.055L1.531 9.858C2.194 10.131 2.915 10.292 3.679 10.292 6.82 10.292 9.367 7.745 9.367 4.604 9.367 4.557 9.362 4.512 9.36 4.466" fill="#231f20"/>
</g>
</svg>
